<svg width="265" height="249" viewBox="0 0 265 249" fill="none" xmlns="http://www.w3.org/2000/svg">
<path d="M83.0436 247.292C83.205 247.82 83.7639 248.118 84.2921 247.956C84.8203 247.795 85.1177 247.236 84.9564 246.708L83.0436 247.292ZM75.7034 123.784L74.8491 123.264L75.7034 123.784ZM202.711 120.092L201.765 119.767L202.711 120.092ZM177.337 4.06329C176.819 3.86992 176.243 4.13255 176.05 4.64987L172.899 13.0802C172.705 13.5976 172.968 14.1737 173.485 14.3671C174.003 14.5604 174.579 14.2978 174.772 13.7805L177.573 6.28681L185.067 9.08774C185.584 9.28111 186.16 9.01848 186.354 8.50115C186.547 7.98382 186.284 7.40769 185.767 7.21432L177.337 4.06329ZM84 247C84.9564 246.708 84.9563 246.708 84.9561 246.707C84.9559 246.706 84.9557 246.706 84.9553 246.704C84.9545 246.702 84.9533 246.698 84.9517 246.692C84.9484 246.682 84.9435 246.666 84.937 246.644C84.9239 246.601 84.9043 246.536 84.8785 246.45C84.8269 246.278 84.7505 246.022 84.6514 245.686C84.4533 245.014 84.1649 244.023 83.8046 242.75C83.0838 240.203 82.0754 236.528 80.9259 232.015C78.6265 222.99 75.7649 210.626 73.5129 197.265C71.2601 183.9 69.6223 169.566 69.7592 156.592C69.8965 143.585 71.8179 132.094 76.5577 124.303L74.8491 123.264C69.8224 131.526 67.8977 143.464 67.7593 156.57C67.6207 169.709 69.2778 184.173 71.5408 197.598C73.8045 211.028 76.6795 223.448 78.9878 232.509C80.1421 237.04 81.1553 240.733 81.8801 243.295C82.2426 244.575 82.533 245.573 82.733 246.252C82.8331 246.591 82.9105 246.85 82.963 247.025C82.9893 247.113 83.0093 247.179 83.0228 247.224C83.0296 247.246 83.0347 247.263 83.0382 247.274C83.04 247.28 83.0413 247.284 83.0422 247.287C83.0426 247.289 83.043 247.29 83.0432 247.291C83.0435 247.292 83.0436 247.292 84 247ZM76.5577 124.303C79.4244 119.592 83.2131 116.726 87.6951 115.193C92.2032 113.652 97.4652 113.443 103.272 114.153C114.913 115.577 128.422 120.647 141.85 125.562C155.192 130.445 168.482 135.186 179.45 135.742C184.957 136.021 189.975 135.253 194.155 132.844C198.356 130.424 201.599 126.411 203.657 120.416L201.765 119.767C199.836 125.388 196.867 128.973 193.156 131.112C189.425 133.262 184.831 134.012 179.551 133.744C168.947 133.207 155.965 128.598 142.537 123.684C129.196 118.801 115.437 113.626 103.514 112.168C97.539 111.437 91.9449 111.626 87.0481 113.301C82.1251 114.984 77.96 118.151 74.8491 123.264L76.5577 124.303ZM203.657 120.416C206.609 111.816 206.405 100.242 204.526 87.8414C202.641 75.4102 199.05 62.0137 195.108 49.6924C191.165 37.3668 186.863 26.093 183.548 17.9021C181.89 13.806 180.478 10.4792 179.481 8.17537C178.982 7.02345 178.586 6.12717 178.315 5.51827C178.18 5.21381 178.075 4.98119 178.005 4.82436C177.969 4.74595 177.942 4.68648 177.924 4.64645C177.915 4.62645 177.908 4.61129 177.904 4.60106C177.901 4.59595 177.9 4.59207 177.898 4.58942C177.898 4.5881 177.897 4.58705 177.897 4.58638C177.897 4.58564 177.896 4.58521 176.986 4.99999C176.077 5.41477 176.077 5.41496 176.077 5.41546C176.077 5.41604 176.078 5.41685 176.078 5.41802C176.079 5.42034 176.081 5.42389 176.083 5.42868C176.087 5.43826 176.094 5.45276 176.103 5.47211C176.12 5.51081 176.146 5.56893 176.181 5.64599C176.251 5.8001 176.354 6.02993 176.488 6.3315C176.756 6.93466 177.149 7.8248 177.645 8.97025C178.638 11.2612 180.043 14.5731 181.694 18.6525C184.997 26.8125 189.28 38.0374 193.203 50.3018C197.128 62.5704 200.686 75.8554 202.548 88.1411C204.415 100.458 204.556 111.636 201.765 119.767L203.657 120.416Z" fill="#BDBDBD"/>
</svg>
