<svg width="17" height="19" viewBox="0 0 17 19" fill="none" xmlns="http://www.w3.org/2000/svg">
<path fill-rule="evenodd" clip-rule="evenodd" d="M12.1612 0.833252C12.5062 0.833252 12.7862 1.11325 12.7862 1.45825L12.7866 2.16476C14.0033 2.24818 15.0139 2.66496 15.7291 3.38167C16.51 4.16583 16.9208 5.29333 16.9167 6.64583V14.2483C16.9167 17.025 15.1533 18.75 12.3158 18.75H5.26746C2.42996 18.75 0.666626 17.0008 0.666626 14.185V6.64417C0.666626 4.02516 2.23917 2.34403 4.80386 2.16505L4.80438 1.45825C4.80438 1.11325 5.08438 0.833252 5.42938 0.833252C5.77438 0.833252 6.05438 1.11325 6.05438 1.45825L6.05413 2.14909H11.5358L11.5362 1.45825C11.5362 1.11325 11.8162 0.833252 12.1612 0.833252ZM15.6666 8.25325H1.91663V14.185C1.91663 16.3233 3.10663 17.5 5.26746 17.5H12.3158C14.4766 17.5 15.6667 16.345 15.6667 14.2483L15.6666 8.25325ZM12.501 13.4968C12.846 13.4968 13.126 13.7768 13.126 14.1218C13.126 14.4668 12.846 14.7468 12.501 14.7468C12.156 14.7468 11.8726 14.4668 11.8726 14.1218C11.8726 13.7768 12.1485 13.4968 12.4935 13.4968H12.501ZM8.80304 13.4968C9.14804 13.4968 9.42804 13.7768 9.42804 14.1218C9.42804 14.4668 9.14804 14.7468 8.80304 14.7468C8.45804 14.7468 8.17471 14.4668 8.17471 14.1218C8.17471 13.7768 8.45054 13.4968 8.79554 13.4968H8.80304ZM5.09738 13.4968C5.44238 13.4968 5.72238 13.7768 5.72238 14.1218C5.72238 14.4668 5.44238 14.7468 5.09738 14.7468C4.75238 14.7468 4.46821 14.4668 4.46821 14.1218C4.46821 13.7768 4.74488 13.4968 5.08988 13.4968H5.09738ZM12.501 10.2579C12.846 10.2579 13.126 10.5379 13.126 10.8829C13.126 11.2279 12.846 11.5079 12.501 11.5079C12.156 11.5079 11.8726 11.2279 11.8726 10.8829C11.8726 10.5379 12.1485 10.2579 12.4935 10.2579H12.501ZM8.80304 10.2579C9.14804 10.2579 9.42804 10.5379 9.42804 10.8829C9.42804 11.2279 9.14804 11.5079 8.80304 11.5079C8.45804 11.5079 8.17471 11.2279 8.17471 10.8829C8.17471 10.5379 8.45054 10.2579 8.79554 10.2579H8.80304ZM5.09738 10.2579C5.44238 10.2579 5.72238 10.5379 5.72238 10.8829C5.72238 11.2279 5.44238 11.5079 5.09738 11.5079C4.75238 11.5079 4.46821 11.2279 4.46821 10.8829C4.46821 10.5379 4.74488 10.2579 5.08988 10.2579H5.09738ZM11.5358 3.39909H6.05413L6.05438 4.20075C6.05438 4.54575 5.77438 4.82575 5.42938 4.82575C5.08438 4.82575 4.80438 4.54575 4.80438 4.20075L4.80393 3.418C2.93707 3.57483 1.91663 4.70646 1.91663 6.64417V7.00325H15.6666L15.6667 6.64417C15.67 5.615 15.3933 4.815 14.8441 4.265C14.3621 3.78151 13.6573 3.49275 12.7869 3.4184L12.7862 4.20075C12.7862 4.54575 12.5062 4.82575 12.1612 4.82575C11.8162 4.82575 11.5362 4.54575 11.5362 4.20075L11.5358 3.39909Z" fill="black"/>
</svg>
